# xmcd CD database file
#
# Track frame offsets:
#	150
#	29560
#	63150
#	82259
#	109414
#	141482
#	164664
#	195855
#	225896
#	255059
#	267481
#	301049
#	317025
#
# Disc length: 4555 seconds
#
# Revision: 0
# Processed by: cddbd v1.5.2PL0 Copyright (c) Steve Scherf et al.
# Submitted via: CDex 1.51
#
DISCID=ab11c90d
DTITLE=Arthur Blythe - Illusions and Blythe Spirit
DYEAR=1980
DGENRE=Jazz
TTITLE0=Bush Baby
TTITLE1=Miss Nancy
TTITLE2=Illusions
TTITLE3=My Son Ra
TTITLE4=Carespin' With Mamie
TTITLE5=As Of Yet
TTITLE6=Contemplations
TTITLE7=Faceless Woman
TTITLE8=Reverence
TTITLE9=Strike Up The Band
TTITLE10=Misty
TTITLE11=Spirits In The Field
TTITLE12=Just A Closer Walk With Thee
EXTD=YEAR: 1980
EXTT0=
EXTT1=
EXTT2=
EXTT3=
EXTT4=
EXTT5=
EXTT6=
EXTT7=
EXTT8=
EXTT9=
EXTT10=
EXTT11=
EXTT12=
PLAYORDER=
